<svg xmlns="http://www.w3.org/2000/svg" viewBox="0 0 89.91 91.04" width="90" height="91" role="img" aria-label="CogniMate">
  <path fill="#11294A" d="M69.68,57.69c-4.46,8.82-13.61,14.89-24.16,14.89-14.92,0-27.06-12.14-27.06-27.06s12.14-27.06,27.06-27.06c10.54,0,19.69,6.07,24.16,14.89,2.96-2.74,6.91-4.43,11.25-4.43,2.77,0,5.38.69,7.67,1.89C82.49,12.9,65.52,0,45.52,0,20.38,0,0,20.38,0,45.52s20.38,45.52,45.52,45.52c19.99,0,36.97-12.9,43.08-30.82-2.3,1.2-4.9,1.89-7.67,1.89-4.34,0-8.29-1.69-11.25-4.43Z"/>
  <path fill="#E8703A" d="M80.93,36.55c-3.84,0-7.12,2.43-8.4,5.83h-7.85c-1.51-9.22-9.51-16.29-19.16-16.29-10.72,0-19.44,8.72-19.44,19.44s8.72,19.44,19.44,19.44c9.64,0,17.65-7.07,19.16-16.29h7.85c1.28,3.4,4.55,5.83,8.4,5.83,4.95,0,8.98-4.03,8.98-8.98s-4.03-8.98-8.98-8.98Z"/>
</svg>
